<svg xmlns="http://www.w3.org/2000/svg" xmlns:xlink="http://www.w3.org/1999/xlink" width="500" zoomAndPan="magnify" viewBox="0 0 375 374.999991" height="500" preserveAspectRatio="xMidYMid meet" version="1.0"><path fill="#ffffff" d="M 369.0625 181.5625 L 347.25 181.5625 C 344.1875 98.125 276.875 30.8125 193.4375 27.75 L 193.4375 5.9375 C 193.4375 2.625 190.75 0 187.5 0 C 184.1875 0 181.5625 2.6875 181.5625 5.9375 L 181.5625 27.75 C 98.125 30.8125 30.8125 98.125 27.75 181.5625 L 5.9375 181.5625 C 2.625 181.5625 0 184.25 0 187.5 C 0 190.8125 2.6875 193.4375 5.9375 193.4375 L 27.75 193.4375 C 30.8125 276.875 98.125 344.1875 181.5625 347.25 L 181.5625 369.0625 C 181.5625 372.375 184.25 375 187.5 375 C 190.8125 375 193.4375 372.3125 193.4375 369.0625 L 193.4375 347.25 C 276.875 344.1875 344.1875 276.875 347.25 193.4375 L 369.0625 193.4375 C 372.375 193.4375 375 190.75 375 187.5 C 375 184.1875 372.3125 181.5625 369.0625 181.5625 Z M 193.4375 44.875 C 267.4375 47.9375 327.0625 107.5625 330.125 181.5625 L 304.875 181.5625 C 301.875 121.5 253.5625 73.1875 193.5 70.1875 L 193.5 44.875 Z M 181.5625 44.875 L 181.5625 70.125 C 121.5 73.125 73.1875 121.4375 70.1875 181.5 L 44.875 181.5 C 47.9375 107.5625 107.5625 47.9375 181.5625 44.875 Z M 181.5625 330.125 C 107.5625 327.0625 47.9375 267.4375 44.875 193.4375 L 70.1875 193.4375 C 73.1875 253.5 121.5 301.8125 181.5625 304.8125 Z M 187.5 245.625 C 184.1875 245.625 181.5625 248.3125 181.5625 251.5625 L 181.5625 280.3125 C 135 277.375 97.625 240 94.6875 193.4375 L 123.4375 193.4375 C 126.75 193.4375 129.375 190.75 129.375 187.5 C 129.375 184.1875 126.6875 181.5625 123.4375 181.5625 L 94.6875 181.5625 C 97.625 135 135 97.625 181.5625 94.6875 L 181.5625 123.4375 C 181.5625 126.75 184.25 129.375 187.5 129.375 C 190.8125 129.375 193.4375 126.6875 193.4375 123.4375 L 193.4375 94.6875 C 240 97.625 277.3125 135 280.3125 181.5625 L 251.5625 181.5625 C 248.25 181.5625 245.625 184.25 245.625 187.5 C 245.625 190.8125 248.3125 193.4375 251.5625 193.4375 L 280.3125 193.4375 C 277.375 240 240 277.375 193.4375 280.3125 L 193.4375 251.5625 C 193.4375 248.3125 190.8125 245.625 187.5 245.625 Z M 193.4375 330.125 L 193.4375 304.8125 C 253.5 301.8125 301.8125 253.5 304.8125 193.4375 L 330.0625 193.4375 C 327.0625 267.4375 267.4375 327.0625 193.4375 330.125 Z M 219.875 187.5 C 219.875 169.625 205.3125 155.125 187.5 155.125 C 169.625 155.125 155.125 169.6875 155.125 187.5 C 155.125 205.375 169.6875 219.875 187.5 219.875 C 205.375 219.875 219.875 205.375 219.875 187.5 Z M 187.5 205.1875 C 177.75 205.1875 169.8125 197.25 169.8125 187.5 C 169.8125 177.75 177.75 169.8125 187.5 169.8125 C 197.25 169.8125 205.1875 177.75 205.1875 187.5 C 205.1875 197.25 197.25 205.1875 187.5 205.1875 Z M 187.5 205.1875 " fill-opacity="1" fill-rule="nonzero"/></svg>